<?xml version="1.0" encoding="UTF-8" standalone="no"?>
<svg width="357px" height="90px" viewBox="0 0 357 90" version="1.1" xmlns="http://www.w3.org/2000/svg" xmlns:xlink="http://www.w3.org/1999/xlink" xmlns:sketch="http://www.bohemiancoding.com/sketch/ns">
    <title>Untitled</title>
    <description>Created with Sketch (http://www.bohemiancoding.com/sketch)</description>
    <defs></defs>
    <g id="Page-1" stroke="none" stroke-width="1" fill="none" fill-rule="evenodd" sketch:type="MSPage">
        <g id="sentinel-+-Logo" sketch:type="MSLayerGroup">
            <text id="sentinel" fill="#606D7E" sketch:type="MSTextLayer" font-family="SciFly" font-size="79.0909091" font-weight="normal">
                <tspan x="115.775439" y="62.1929825">sentinel</tspan>
            </text>
            <g id="Logo" sketch:type="MSShapeGroup">
                <path d="M20.9793049,0 C18.8397696,0 17.1213289,1.73010666 17.1213289,3.88346491 L17.1213289,11.9907376 C17.1213289,14.8986194 14.7723727,17.2348485 11.883644,17.2348485 L3.85797607,17.2348485 C1.71844074,17.2348485 0,18.9929844 0,21.1467055 L0,36.0288158 C0,38.182174 1.71844074,39.9122807 3.85797607,39.9122807 L14.1645655,39.9122807 C16.3041008,39.9122807 18.0224514,38.182174 18.0224514,36.0288158 L18.0224514,35.6035686 L18.0503862,35.6035686 C18.590429,28.8666477 19.7119661,23.3009709 21.4295959,21.571862 C23.1472256,19.8428439 28.6762434,18.7139613 35.3687906,18.1702472 L35.3687906,18.1421272 L35.7912369,18.1421272 C37.9307722,18.1421272 39.6491228,16.4120205 39.6491228,14.2586623 L39.6491228,3.88364633 C39.6491228,1.73028808 37.9307722,0.000181419458 35.7912369,0.000181419458 L20.9793049,0 Z M20.9793049,0" id="path6412" fill="#71BF52"></path>
                <path d="M53.0200383,0.000544258373 C50.8823938,0.000544258373 49.1649123,1.73065092 49.1649123,3.88400917 L49.1649123,14.2590251 C49.1649123,16.2427562 50.6400752,17.8416966 52.5417044,18.0857965 L52.5417044,18.1139165 C59.6352191,18.6263357 65.5781032,19.7656499 67.371495,21.5721342 C69.167228,23.3811583 70.3249725,29.3806998 70.8326619,36.5392394 L70.8326619,36.5673594 C71.0913692,38.4644627 72.7031346,39.9122807 74.659693,39.9122807 L84.9589091,39.9122807 C87.0969138,39.9122807 88.8140351,38.182174 88.8140351,36.0288158 L88.8140351,21.1467055 C88.8140351,18.9929844 87.0969138,17.2348485 84.9589091,17.2348485 L76.9108878,17.2348485 C74.0240457,17.2348485 71.7049549,14.8986194 71.7049549,11.9907376 L71.67704,3.88346491 C71.67704,1.73010666 69.9595585,0 67.821914,0 L53.0200383,0.000544258373 Z M53.0200383,0.000544258373" id="path6410" fill="#FED154"></path>
                <path d="M3.85794976,49.4912281 C1.71842903,49.4912281 0,51.2213347 0,53.374693 L0,68.2568032 C0,70.4105243 1.71842903,72.1686603 3.85794976,72.1686603 L11.883563,72.1686603 C14.7722719,72.1686603 17.1212121,74.5048894 17.1212121,77.4127711 L17.1212121,85.5200439 C17.1212121,87.6734021 18.8396411,89.4035088 20.9791619,89.4035088 L35.7912632,89.4035088 C37.9307839,89.4035088 39.6491228,87.6734021 39.6491228,85.5200439 L39.6491228,75.1450279 C39.6491228,73.029677 37.9907982,71.3213407 35.9039027,71.261563 C28.9699019,70.7359001 23.1931148,69.6067454 21.4297201,67.8316467 C19.6639825,66.0541896 18.5436244,60.2253638 18.0223285,53.2330044 L17.9943939,53.2330044 C17.9187002,51.1469528 16.2559601,49.4912281 14.1646491,49.4912281 L3.85794976,49.4912281 Z M3.85794976,49.4912281" id="path6408" fill="#3DA1D8"></path>
                <path d="M74.6598088,49.4915002 C72.6838812,49.4915002 71.0670657,50.9685267 70.8327603,52.893115 C70.3240781,60.0390461 69.1649776,66.0252532 67.3715777,67.8319189 C65.580519,69.6360447 59.6511152,70.7767195 52.5698148,71.2901366 L52.5698148,71.3182566 C50.6546697,71.5497478 49.1649123,73.1514095 49.1649123,75.1450279 L49.1649123,85.5200439 C49.1649123,87.6734021 50.8824016,89.4035088 53.0200558,89.4035088 L67.8218187,89.4035088 C69.9594729,89.4035088 71.6769622,87.6734021 71.6769622,85.5200439 L71.7048771,77.4127711 C71.7048771,74.5048894 74.0239785,72.1686603 76.9108337,72.1686603 L84.9588916,72.1686603 C87.096906,72.1686603 88.8140351,70.4105243 88.8140351,68.2568032 L88.8140351,53.374693 C88.8140351,51.2213347 87.096906,49.4912281 84.9588916,49.4912281 L74.6598088,49.4915002 Z M74.6598088,49.4915002" id="rect6331" fill="#E54B80"></path>
                <path d="M62.303443,62.7169647 C58.6752224,66.3691989 31.7247776,66.3691989 28.096557,62.7169647 C24.4683991,59.0646673 24.4683991,31.9353169 28.096557,28.2830827 C31.7247776,24.6307853 58.6752224,24.6307853 62.303443,28.2830827 C65.9316009,31.9353169 65.9316009,59.0646673 62.303443,62.7169647 L62.303443,62.7169647 Z M62.303443,62.7169647" id="path6381" fill-opacity="0.522891774" fill="#606D7E"></path>
            </g>
        </g>
    </g>
</svg>